<svg width="40" height="40" viewBox="0 0 40 40" fill="none" xmlns="http://www.w3.org/2000/svg">
<g clip-path="url(#clip0_1_6)">
<rect width="40" height="40" fill="white"/>
<path d="M17.984 10.008C17.92 10.616 17.872 11.208 17.84 11.784C17.824 12.344 17.816 12.776 17.816 13.08C17.816 13.464 17.824 13.824 17.84 14.16C17.856 14.496 17.872 14.792 17.888 15.048H17.336C17.224 13.928 17.072 13.048 16.88 12.408C16.688 11.752 16.352 11.28 15.872 10.992C15.392 10.704 14.648 10.56 13.64 10.56H12.128C11.584 10.56 11.168 10.608 10.88 10.704C10.608 10.784 10.424 10.968 10.328 11.256C10.232 11.528 10.184 11.96 10.184 12.552V24.456C10.184 25.032 10.24 25.464 10.352 25.752C10.48 26.04 10.72 26.232 11.072 26.328C11.424 26.424 11.936 26.488 12.608 26.52V27C12.192 26.968 11.664 26.952 11.024 26.952C10.384 26.936 9.736 26.928 9.08 26.928C8.456 26.928 7.872 26.936 7.328 26.952C6.784 26.952 6.344 26.968 6.008 27V26.52C6.552 26.488 6.96 26.424 7.232 26.328C7.52 26.232 7.712 26.04 7.808 25.752C7.904 25.464 7.952 25.032 7.952 24.456V12.552C7.952 11.96 7.904 11.528 7.808 11.256C7.712 10.968 7.52 10.776 7.232 10.68C6.96 10.568 6.552 10.504 6.008 10.488V10.008C6.6 10.024 7.224 10.04 7.88 10.056C8.536 10.056 9.184 10.064 9.824 10.08C10.464 10.08 11.056 10.08 11.6 10.08C12.16 10.08 12.616 10.08 12.968 10.08C13.704 10.08 14.536 10.08 15.464 10.08C16.408 10.064 17.248 10.04 17.984 10.008ZM14.264 18.456C14.264 18.456 14.264 18.536 14.264 18.696C14.264 18.856 14.264 18.936 14.264 18.936H9.464C9.464 18.936 9.464 18.856 9.464 18.696C9.464 18.536 9.464 18.456 9.464 18.456H14.264ZM14.72 15.288C14.656 16.2 14.624 16.896 14.624 17.376C14.64 17.856 14.648 18.296 14.648 18.696C14.648 19.096 14.656 19.536 14.672 20.016C14.688 20.496 14.728 21.192 14.792 22.104H14.24C14.176 21.592 14.096 21.096 14 20.616C13.92 20.12 13.728 19.72 13.424 19.416C13.136 19.096 12.64 18.936 11.936 18.936V18.456C12.464 18.456 12.864 18.352 13.136 18.144C13.424 17.92 13.632 17.64 13.76 17.304C13.888 16.968 13.976 16.624 14.024 16.272C14.072 15.904 14.12 15.576 14.168 15.288H14.72ZM36.3817 27.552L36.7417 27.696C36.5497 28.352 36.3257 28.896 36.0697 29.328C35.8297 29.776 35.5497 30.144 35.2297 30.432C34.9257 30.704 34.5097 30.952 33.9817 31.176C33.4697 31.4 32.8057 31.512 31.9897 31.512C31.1417 31.512 30.3177 31.368 29.5177 31.08C28.7337 30.808 27.9177 30.472 27.0697 30.072C26.2217 29.672 25.2857 29.304 24.2617 28.968C24.1497 28.936 24.0457 28.904 23.9497 28.872C23.8537 28.84 23.7657 28.816 23.6857 28.8C23.3817 28.912 23.0537 29 22.7017 29.064C22.3497 29.128 22.0137 29.16 21.6937 29.16C21.3737 29.16 21.1097 29.12 20.9017 29.04C20.6937 28.96 20.5897 28.84 20.5897 28.68C20.5897 28.344 21.0217 28.176 21.8857 28.176C22.4457 28.176 23.0457 28.24 23.6857 28.368C24.2617 28.208 24.7577 28.024 25.1737 27.816C25.5897 27.624 26.0137 27.44 26.4457 27.264C26.8937 27.088 27.4297 26.976 28.0537 26.928L28.0777 27.312C27.5977 27.36 27.1817 27.448 26.8297 27.576C26.4777 27.72 26.1257 27.872 25.7737 28.032C25.4217 28.192 25.0057 28.344 24.5257 28.488C25.3257 28.648 26.1977 28.816 27.1417 28.992C28.0857 29.168 28.9977 29.32 29.8777 29.448C30.7577 29.576 31.5097 29.64 32.1337 29.64C33.2857 29.64 34.1897 29.472 34.8457 29.136C35.5177 28.8 36.0297 28.272 36.3817 27.552ZM27.3337 9.672C28.8537 9.672 30.1817 10.016 31.3177 10.704C32.4697 11.392 33.3577 12.384 33.9817 13.68C34.6217 14.96 34.9417 16.52 34.9417 18.36C34.9417 20.152 34.6137 21.72 33.9577 23.064C33.3177 24.408 32.4217 25.456 31.2697 26.208C30.1177 26.96 28.7977 27.336 27.3097 27.336C25.7897 27.336 24.4537 26.992 23.3017 26.304C22.1657 25.616 21.2777 24.624 20.6377 23.328C20.0137 22.032 19.7017 20.472 19.7017 18.648C19.7017 16.856 20.0297 15.288 20.6857 13.944C21.3417 12.6 22.2377 11.552 23.3737 10.8C24.5257 10.048 25.8457 9.672 27.3337 9.672ZM27.2377 10.104C26.1977 10.104 25.2937 10.464 24.5257 11.184C23.7577 11.904 23.1577 12.896 22.7257 14.16C22.3097 15.424 22.1017 16.888 22.1017 18.552C22.1017 20.248 22.3337 21.728 22.7977 22.992C23.2777 24.24 23.9177 25.208 24.7177 25.896C25.5337 26.568 26.4297 26.904 27.4057 26.904C28.4457 26.904 29.3497 26.544 30.1177 25.824C30.8857 25.104 31.4777 24.112 31.8937 22.848C32.3257 21.568 32.5417 20.104 32.5417 18.456C32.5417 16.744 32.3017 15.264 31.8217 14.016C31.3577 12.768 30.7257 11.808 29.9257 11.136C29.1257 10.448 28.2297 10.104 27.2377 10.104Z" fill="black"/>
</g>
<defs>
<clipPath id="clip0_1_6">
<rect width="40" height="40" fill="white"/>
</clipPath>
</defs>
</svg>
